<?xml version="1.0" standalone="no"?>
<!DOCTYPE svg PUBLIC "-//W3C//DTD SVG 20010904//EN"
 "http://www.w3.org/TR/2001/REC-SVG-20010904/DTD/svg10.dtd">
<svg version="1.0" xmlns="http://www.w3.org/2000/svg"
 width="174.000000pt" height="256.000000pt" viewBox="0 0 174.000000 256.000000"
 preserveAspectRatio="xMidYMid meet">

<g transform="translate(0.000000,256.000000) scale(0.100000,-0.100000)"
fill="#000000" stroke="none">
<path d="M774 1989 l7 -171 61 -59 c33 -32 62 -59 65 -59 3 0 3 80 -1 178 l-6
177 -57 52 c-32 29 -62 53 -67 53 -5 0 -6 -71 -2 -171z"/>
<path d="M1285 1853 c-50 -26 -65 -42 -208 -201 l-137 -153 0 -64 c0 -94 6
-103 44 -66 l31 31 90 -113 c157 -195 144 -185 222 -182 38 1 68 6 68 11 0 5
-63 89 -140 187 -77 98 -141 184 -143 190 -3 16 249 299 282 317 33 17 33 38
0 50 -36 14 -74 12 -109 -7z"/>
<path d="M907 1053 c-15 -14 -7 -43 12 -43 23 0 34 23 18 39 -13 13 -21 14
-30 4z"/>
<path d="M1012 1049 c2 -6 8 -10 13 -10 5 0 11 4 13 10 2 6 -4 11 -13 11 -9 0
-15 -5 -13 -11z"/>
<path d="M456 1034 c-34 -34 -9 -94 39 -94 13 0 31 7 39 16 34 34 9 94 -39 94
-13 0 -31 -7 -39 -16z"/>
<path d="M766 1014 c-19 -18 -19 -20 -6 -45 14 -25 46 -25 60 0 5 11 10 22 10
25 0 8 -31 36 -40 36 -5 0 -16 -7 -24 -16z"/>
<path d="M1031 995 c-30 -9 -105 -38 -167 -65 -129 -56 -204 -80 -249 -80 -60
0 -130 29 -193 80 l-64 51 41 -59 c75 -110 168 -172 261 -172 55 0 131 26 281
96 227 106 315 117 474 60 l20 -8 -20 17 c-11 10 -53 33 -92 52 -61 30 -86 36
-155 39 -55 3 -101 -1 -137 -11z"/>
<path d="M612 988 c-28 -28 -7 -78 33 -78 12 0 26 5 33 12 7 7 12 21 12 33 0
12 -5 26 -12 33 -7 7 -21 12 -33 12 -12 0 -26 -5 -33 -12z"/>
</g>
</svg>
